<?xml version='1.0' encoding='iso-8859-1'?>
<!DOCTYPE svg PUBLIC '-//W3C//DTD SVG 1.1//EN' 'http://www.w3.org/Graphics/SVG/1.1/DTD/svg11.dtd'>
<svg version="1.1" xmlns="http://www.w3.org/2000/svg" viewBox="0 0 441 441" xmlns:xlink="http://www.w3.org/1999/xlink" enable-background="new 0 0 441 441">
  <g>
    <path d="m253.99,0h-66.98c-53.837,0-97.636,43.799-97.636,97.635v245.729c0,53.836 43.799,97.635 97.636,97.635h66.98c53.837,0 97.636-43.799 97.636-97.635v-245.729c0-53.836-43.799-97.635-97.636-97.635zm82.636,343.365c0,45.565-37.07,82.635-82.636,82.635h-66.98c-45.565,0-82.636-37.07-82.636-82.635v-245.73c0-45.565 37.07-82.635 82.636-82.635h66.98c45.565,0 82.636,37.07 82.636,82.635v245.73z"/>
    <path d="m253.99,22.5h-66.98c-41.43,0-75.136,33.706-75.136,75.135v245.729c0,41.43 33.706,75.135 75.136,75.135h66.98c41.43,0 75.136-33.706 75.136-75.135v-245.729c0-41.429-33.706-75.135-75.136-75.135zm65.136,320.865c0,35.916-29.22,65.135-65.136,65.135h-66.98c-35.916,0-65.136-29.22-65.136-65.135v-245.73c0-35.916 29.22-65.135 65.136-65.135h66.98c35.916,0 65.136,29.22 65.136,65.135v245.73z"/>
    <path d="m158.253,265.924c-10.2,0-18.499,8.299-18.499,18.499 0,10.201 8.299,18.5 18.499,18.5s18.499-8.299 18.499-18.5c2.84217e-14-10.2-8.299-18.499-18.499-18.499zm0,26.999c-4.687,0-8.499-3.813-8.499-8.5s3.813-8.499 8.499-8.499 8.499,3.813 8.499,8.499-3.813,8.5-8.499,8.5z"/>
    <path d="m199.751,265.924c-10.2,0-18.499,8.299-18.499,18.499 0,10.201 8.299,18.5 18.499,18.5s18.499-8.299 18.499-18.5c0-10.2-8.299-18.499-18.499-18.499zm0,26.999c-4.687,0-8.499-3.813-8.499-8.5s3.813-8.499 8.499-8.499 8.499,3.813 8.499,8.499-3.812,8.5-8.499,8.5z"/>
    <path d="m241.249,265.924c-10.201,0-18.5,8.299-18.5,18.499 0,10.201 8.299,18.5 18.5,18.5 10.2,0 18.499-8.299 18.499-18.5 0-10.2-8.299-18.499-18.499-18.499zm0,26.999c-4.687,0-8.5-3.813-8.5-8.5s3.813-8.499 8.5-8.499 8.499,3.813 8.499,8.499-3.812,8.5-8.499,8.5z"/>
    <path d="m282.747,265.924c-10.201,0-18.5,8.299-18.5,18.499 0,10.201 8.299,18.5 18.5,18.5 10.2,0 18.499-8.299 18.499-18.5-5.68434e-14-10.2-8.299-18.499-18.499-18.499zm0,26.999c-4.687,0-8.5-3.813-8.5-8.5s3.813-8.499 8.5-8.499 8.499,3.813 8.499,8.499-3.812,8.5-8.499,8.5z"/>
    <path d="m158.253,307.924c-10.2,0-18.499,8.299-18.499,18.499 0,10.201 8.299,18.5 18.499,18.5s18.499-8.299 18.499-18.5c2.84217e-14-10.2-8.299-18.499-18.499-18.499zm0,26.999c-4.687,0-8.499-3.813-8.499-8.5s3.813-8.499 8.499-8.499 8.499,3.813 8.499,8.499-3.813,8.5-8.499,8.5z"/>
    <path d="m199.751,307.924c-10.2,0-18.499,8.299-18.499,18.499 0,10.201 8.299,18.5 18.499,18.5s18.499-8.299 18.499-18.5c0-10.2-8.299-18.499-18.499-18.499zm0,26.999c-4.687,0-8.499-3.813-8.499-8.5s3.813-8.499 8.499-8.499 8.499,3.813 8.499,8.499-3.812,8.5-8.499,8.5z"/>
    <path d="m241.249,307.924c-10.201,0-18.5,8.299-18.5,18.499 0,10.201 8.299,18.5 18.5,18.5 10.2,0 18.499-8.299 18.499-18.5 0-10.2-8.299-18.499-18.499-18.499zm0,26.999c-4.687,0-8.5-3.813-8.5-8.5s3.813-8.499 8.5-8.499 8.499,3.813 8.499,8.499-3.812,8.5-8.499,8.5z"/>
    <path d="m282.747,307.924c-10.201,0-18.5,8.299-18.5,18.499 0,10.201 8.299,18.5 18.5,18.5 10.2,0 18.499-8.299 18.499-18.5-5.68434e-14-10.2-8.299-18.499-18.499-18.499zm0,26.999c-4.687,0-8.5-3.813-8.5-8.5s3.813-8.499 8.5-8.499 8.499,3.813 8.499,8.499-3.812,8.5-8.499,8.5z"/>
    <path d="m158.253,349.924c-10.2,0-18.499,8.299-18.499,18.499 0,10.201 8.299,18.5 18.499,18.5s18.499-8.299 18.499-18.5c2.84217e-14-10.2-8.299-18.499-18.499-18.499zm0,26.999c-4.687,0-8.499-3.813-8.499-8.5s3.813-8.499 8.499-8.499 8.499,3.813 8.499,8.499-3.813,8.5-8.499,8.5z"/>
    <path d="m199.751,349.924c-10.2,0-18.499,8.299-18.499,18.499 0,10.201 8.299,18.5 18.499,18.5s18.499-8.299 18.499-18.5c0-10.2-8.299-18.499-18.499-18.499zm0,26.999c-4.687,0-8.499-3.813-8.499-8.5s3.813-8.499 8.499-8.499 8.499,3.813 8.499,8.499-3.812,8.5-8.499,8.5z"/>
    <path d="m241.249,349.924c-10.201,0-18.5,8.299-18.5,18.499 0,10.201 8.299,18.5 18.5,18.5 10.2,0 18.499-8.299 18.499-18.5 0-10.2-8.299-18.499-18.499-18.499zm0,26.999c-4.687,0-8.5-3.813-8.5-8.5s3.813-8.499 8.5-8.499 8.499,3.813 8.499,8.499-3.812,8.5-8.499,8.5z"/>
    <path d="m282.747,349.924c-10.201,0-18.5,8.299-18.5,18.499 0,10.201 8.299,18.5 18.5,18.5 10.2,0 18.499-8.299 18.499-18.5-5.68434e-14-10.2-8.299-18.499-18.499-18.499zm0,26.999c-4.687,0-8.5-3.813-8.5-8.5s3.813-8.499 8.5-8.499 8.499,3.813 8.499,8.499-3.812,8.5-8.499,8.5z"/>
    <path d="m150.826,89.5c-11.903,0-21.588,9.685-21.588,21.589v76.823c0,11.904 9.685,21.588 21.588,21.588h139.348c11.903,0 21.588-9.685 21.588-21.588v-76.823c0-11.904-9.685-21.589-21.588-21.589h-139.348zm150.936,21.589v76.823c0,6.39-5.198,11.588-11.588,11.588h-139.348c-6.39,0-11.588-5.199-11.588-11.588v-76.823c0-6.39 5.198-11.589 11.588-11.589h139.348c6.389,1.42109e-14 11.588,5.199 11.588,11.589z"/>
    <path d="m154.238,109.5c-2.762,0-5,2.239-5,5v70c0,2.761 2.238,5 5,5h132.523c2.762,0 5-2.239 5-5v-70c0-2.761-2.238-5-5-5h-132.523zm127.524,70h-122.524v-60h122.523v60z"/>
    <path d="m186.313,68.5h12.375c2.762,0 5-2.239 5-5s-2.238-5-5-5h-12.375c-2.762,0-5,2.239-5,5s2.238,5 5,5z"/>
    <path d="m214.313,68.5h12.375c2.762,0 5-2.239 5-5s-2.238-5-5-5h-12.375c-2.762,0-5,2.239-5,5s2.238,5 5,5z"/>
    <path d="m242.313,68.5h12.375c2.762,0 5-2.239 5-5s-2.238-5-5-5h-12.375c-2.762,0-5,2.239-5,5s2.238,5 5,5z"/>
    <path d="m174.706,245c6.617,0 12-5.383 12-12s-5.383-12-12-12h-22.952c-6.617,0-12,5.383-12,12s5.383,12 12,12h22.952zm-24.952-12c0-1.103 0.897-2 2-2h22.952c1.103,0 2,0.897 2,2s-0.897,2-2,2h-22.952c-1.103,0-2-0.897-2-2z"/>
    <path d="m209.023,245h22.952c6.617,0 12-5.383 12-12s-5.383-12-12-12h-22.952c-6.617,0-12,5.383-12,12s5.383,12 12,12zm0-14h22.952c1.103,0 2,0.897 2,2s-0.897,2-2,2h-22.952c-1.103,0-2-0.897-2-2s0.898-2 2-2z"/>
    <path d="m289.246,221h-22.952c-6.617,0-12,5.383-12,12s5.383,12 12,12h22.952c6.617,0 12-5.383 12-12s-5.383-12-12-12zm0,14h-22.952c-1.103,0-2-0.897-2-2s0.897-2 2-2h22.952c1.103,0 2,0.897 2,2s-0.897,2-2,2z"/>
  </g>
</svg>
